PathFileType	4	(X/Y/Z)	Walk10.trc
DataRate	CameraRate	NumFrames	NumMarkers	Units	OrigDataRate	OrigDataStartFrame	OrigNumFrames
200.000000	200.000000	5	56	mm	200.000000	261	519
Frame#	Times		RBHD		C7		RASI		RACR1		RUA1		RElbow		RFA1		LFA1		RTH3		RTH2		RTB1		RTB3		RMT1		LTH2		RMT5		RLFC		LElbowM		RTH1		RWRU		RTB2		LElbow		RTB4		RMMAL		LACR1		LTH3		LTH4		LWRU		CLAV		LASI		LTB1		LPSI		RPSI		T10		LLFC		RTH4		LBHD		RCAR		LTB3		LTH1		LTB4		RToe		LWRR		LMT1		RBack		LMMAL		LCAL		LFHD		LTB2		LLMAL		RLMAL		LCAR		LToe		LMT5		RElbowM		LUA1		RCAL
			X1	Y1	Z1	X2	Y2	Z2	X3	Y3	Z3	X4	Y4	Z4	X5	Y5	Z5	X6	Y6	Z6	X7	Y7	Z7	X8	Y8	Z8	X9	Y9	Z9	X10	Y10	Z10	X11	Y11	Z11	X12	Y12	Z12	X13	Y13	Z13	X14	Y14	Z14	X15	Y15	Z15	X16	Y16	Z16	X17	Y17	Z17	X18	Y18	Z18	X19	Y19	Z19	X20	Y20	Z20	X21	Y21	Z21	X22	Y22	Z22	X23	Y23	Z23	X24	Y24	Z24	X25	Y25	Z25	X26	Y26	Z26	X27	Y27	Z27	X28	Y28	Z28	X29	Y29	Z29	X30	Y30	Z30	X31	Y31	Z31	X32	Y32	Z32	X33	Y33	Z33	X34	Y34	Z34	X35	Y35	Z35	X36	Y36	Z36	X37	Y37	Z37	X38	Y38	Z38	X39	Y39	Z39	X40	Y40	Z40	X41	Y41	Z41	X42	Y42	Z42	X43	Y43	Z43	X44	Y44	Z44	X45	Y45	Z45	X46	Y46	Z46	X47	Y47	Z47	X48	Y48	Z48	X49	Y49	Z49	X50	Y50	Z50	X51	Y51	Z51	X52	Y52	Z52	X53	Y53	Z53	X54	Y54	Z54	X55	Y55	Z55	X56	Y56	Z56

261	1.305	-260.94	1571.4	432.11	-304.7	1440.2	357.29	-222.93	948.06	469	-226.43	1375.4	496.91	-276.71	1184.9	572.93	-337.2	1064.8	599.9	-315.07	919.83	620.91	-266.06	1002.4	25.791	-204.46	560.14	484.77	-162.57	672.32	476.55	-155.04	369.81	380.68	-180.51	181.24	371.92	-94.887	39.376	330.96	-185.16	650.64	171.75	-124.72	32.998	418.4	-183.63	459.81	466.24	-394.31	1122.3	136.42	-251.58	740.54	519.37	-345.98	791.14	618.58	-174.52	272.55	449.67	-373.9	1123.2	56.443	-165.92	277.26	378.37	-221.68	97.259	324.08	-277.62	1437.4	175.65	-240.98	549.99	151.45	-256.45	638.26	142.87	-260.69	884.17	32.43	-175.44	1354.7	327.96	-245.28	940.22	165.91	-274.1	340.19	223.4	-411.4	959.36	273.54	-410.11	965.96	378.08	-415.47	1135.9	327.95	-245.16	441.38	164.41	-227.77	648.91	505.8	-266.01	1584.1	294.38	-310.69	731.97	623.07	-435.97	253.12	232.73	-271.16	734.92	141.09	-354.79	297.96	228.5	-42.878	36.21	355.63	-192.89	913.29	66.736	-525.57	89.61	272.99	-370.58	1343.1	454.4	-541.56	223.36	293.06	-637.04	254.37	259.33	-80.81	1589	310.73	-374.21	325.6	164.98	-577.45	244.13	210.18	-246.25	80.617	410.39	-181.37	862.23	18.589	-492.9	69.935	250.12	-541.21	109.64	195.01	-372.02	1046.3	510.1	-330.09	1249.8	75.163	-298.18	33.481	368.89
262	1.31	-254.12	1572.8	432.11	-297.74	1441.7	357.48	-216.55	949.02	469.73	-219.61	1377.3	496.82	-267.74	1186.2	573.07	-326.79	1065.7	600.93	-302.49	920.98	621.39	-262.01	1003.1	26.372	-201.86	560.37	485.15	-158.71	672.16	477.2	-154.2	369.83	381.09	-180.52	181.22	372.14	-94.903	39.437	331.05	-175.19	653.97	171.61	-124.73	32.868	418.57	-182.53	459.8	466.67	-389.21	1124	137.09	-246.76	741.47	519.83	-331.3	791.48	619.17	-174.18	272.35	450.02	-368.83	1124.5	57.169	-165.31	277.28	378.73	-221.67	97.325	324.24	-271.21	1438.7	175.69	-229.15	552.23	151.53	-246.34	640.19	143.14	-256.98	885.04	32.617	-168.92	1356.3	327.72	-238.62	941.88	166.4	-260.5	342.01	223.84	-404.4	960.97	274.28	-403.33	967.76	378.64	-408.67	1137.3	328.28	-231.27	443.75	164.65	-223.58	649.41	506.37	-258.91	1585.9	294.25	-294.71	733.15	623.31	-420.68	254.28	233.34	-262.9	736.65	141.44	-339.85	299.52	228.7	-42.914	36.255	355.78	-189	913.89	67.346	-507.61	90.11	273.86	-363.68	1344.5	454.9	-525.77	223.44	293.64	-622.14	252.96	259.79	-73.984	1590.1	311.19	-359.45	327.05	165.37	-561.93	243.68	210.56	-246.25	80.561	410.42	-177.41	862.5	19.724	-474.71	70.895	251.08	-523.41	110.07	195.69	-361.92	1046.4	511.46	-324.87	1251.2	75.423	-298.22	33.479	368.86
263	1.315	-247.47	1574.2	431.8	-291.15	1443.1	357.57	-210.02	950.06	470.39	-212.74	1378.9	496.79	-258.86	1187.6	573.25	-316.26	1066.6	601.65	-289.91	922.09	621.96	-257.76	1004	26.887	-199.63	560.58	485.74	-154.99	671.63	477.63	-152.93	369.83	381.57	-180.3	181.18	372.21	-94.949	39.521	331.15	-165.29	657.02	171.33	-124.73	32.906	418.87	-181.31	459.93	467.24	-383.81	1125.4	137.54	-241.32	742.01	520.24	-316.33	792.21	619.58	-173.91	272.25	450.48	-363.7	1126.4	57.745	-164.75	277.36	379	-221.68	97.455	324.37	-265.05	1440.2	175.69	-217.72	554.59	151.64	-236.48	642.09	143.22	-253.02	885.99	32.939	-162.32	1357.8	327.76	-231.99	943.57	167.07	-244.7	344.4	223.32	-398.36	962.49	274.59	-396.8	969.31	379.26	-402.02	1138.8	328.9	-217.82	446.22	164.85	-219.91	650.37	506.9	-251.84	1587.5	294.3	-278.91	734.69	623.84	-405.18	254.73	233.88	-254.65	738.29	141.75	-324.78	301.15	228.79	-42.978	36.194	355.95	-185.12	914.44	68.078	-489.29	90.364	274.68	-356.83	1346	455.21	-509.88	223.12	294.37	-607.05	251.04	260.3	-66.901	1591.3	311.57	-344.74	328.62	165.69	-546.18	242.74	211.17	-246.38	80.119	410.49	-173.61	862.74	20.728	-455.94	71.851	251.99	-505.41	110.14	196.42	-352.09	1046.8	511.95	-319.39	1252.8	75.478	-298.26	33.458	368.86
264	1.32	-240.64	1575.9	431.84	-284.46	1444.6	357.75	-203.84	951.22	470.96	-205.97	1380.4	496.92	-250.28	1189.2	573.51	-306.15	1067.5	602.4	-277.32	923.24	622.62	-253.21	1004.9	27.346	-197.41	560.84	486.21	-151.48	671.19	478.08	-152.17	369.83	382	-180.14	181.18	372.4	-94.989	39.643	331.19	-155.37	660.25	170.95	-124.74	32.762	419	-180.39	460	467.96	-378.8	1127.1	138	-237.1	742.87	520.6	-301.14	792.95	619.77	-173.49	272.15	450.91	-358.81	1127.6	58.378	-164.31	277.3	379.37	-221.69	97.603	324.51	-258.93	1441.2	176.02	-206.34	556.83	151.58	-226.43	644.08	143.32	-249.39	886.86	33.27	-155.71	1359	327.71	-225.29	945.58	167.59	-228.51	347	222.78	-392.21	964.21	274.92	-390.37	970.78	379.94	-395.46	1140.1	329.58	-204.52	448.68	165.06	-216.76	650.92	507.37	-244.67	1588.9	294.47	-263.09	736.45	624.38	-389.21	255.32	234.09	-246.2	739.98	141.95	-309.76	302.31	229.16	-43.01	36.17	356.12	-181.44	914.93	68.71	-470.59	90.483	275.55	-350.3	1347.1	455.54	-493.84	222.5	295.06	-591.51	248.67	260.65	-59.766	1592.5	311.8	-330.26	329.85	166.1	-530.37	241.42	211.77	-246.47	79.836	410.55	-170.03	863	21.579	-436.78	72.443	253.11	-486.9	109.99	197.08	-342.3	1047.3	512.83	-314.3	1254.1	75.836	-298.3	33.532	368.9
265	1.325	-233.9	1577.4	431.94	-277.79	1445.8	357.76	-197.73	952	471.8	-199.01	1382.2	496.89	-241.48	1190.7	573.8	-296.06	1068.4	603.44	-264.6	924.55	623.08	-249.09	1005.9	27.718	-195.17	560.97	486.71	-147.46	670.85	478.77	-151.68	369.69	382.35	-179.9	181.36	372.73	-95.005	39.677	331.39	-145.56	663.2	170.78	-124.72	32.674	419.13	-178.6	459.82	468.33	-373.63	1128.5	138.65	-232.32	743.39	521.31	-286.48	794.2	620.2	-173.16	272.16	451.26	-353.97	1129	59.022	-163.67	276.55	379.22	-221.62	97.755	324.69	-252.38	1442.4	176.15	-195.14	559.06	151.88	-216.59	645.97	143.42	-245.55	887.71	33.628	-149.01	1360.5	327.66	-218.8	947.17	168.23	-212.81	349.43	222.53	-385.48	965.71	275.34	-383.86	972.19	380.35	-388.77	1141.3	330.13	-191.39	451.4	165.25	-213.6	651.23	507.82	-237.94	1590.6	294.35	-246.97	738.2	624.84	-373.39	255.51	234.34	-237.61	741.6	142.12	-294.54	303.6	229.45	-43.019	36.114	356.26	-177.63	915.46	69.344	-451.53	90.174	276.47	-343.6	1348.5	455.8	-477.61	221.88	295.53	-576	245.63	261.1	-52.888	1593.5	312.19	-315.63	331.08	166.42	-514.53	239.78	212.1	-246.53	79.76	410.58	-166.42	863.18	22.44	-417.02	73.228	253.82	-468.04	109.42	198.01	-332.4	1047.4	513.91	-309.12	1255.4	76.011	-298.36	33.598	368.95
